<svg width="200" height="66" viewBox="0 0 200 66" fill="none" xmlns="http://www.w3.org/2000/svg">
<path fill-rule="evenodd" clip-rule="evenodd" d="M56.7295 15.6045L30.0445 0.298199C29.3521 -0.0992886 28.5002 -0.0992886 27.8084 0.297533L1.11735 15.6045C0.425626 16 0 16.733 0 17.5267V48.0839C0 48.8769 0.425626 49.6106 1.11735 50.0068L27.8084 65.311C28.155 65.5108 28.5404 65.61 28.9251 65.61C29.3119 65.61 29.6979 65.5108 30.0445 65.311L56.7295 50.0068C57.4199 49.61 57.8469 48.8776 57.8469 48.0839V17.5267C57.8469 16.733 57.4199 16 56.7295 15.6045V15.6045Z" fill="#000A0A"/>
<path fill-rule="evenodd" clip-rule="evenodd" d="M54.9509 16.5914L30.0635 2.3162C29.4177 1.94549 28.6232 1.94549 27.9781 2.31558L3.08505 16.5914C2.43992 16.9602 2.04297 17.6439 2.04297 18.3841V46.8828C2.04297 47.6224 2.43992 48.3067 3.08505 48.6761L27.9781 62.9494C28.3013 63.1357 28.6607 63.2282 29.0195 63.2282C29.3802 63.2282 29.7403 63.1357 30.0635 62.9494L54.9509 48.6761C55.5948 48.3061 55.993 47.623 55.993 46.8828V18.3841C55.993 17.6439 55.5948 16.9602 54.9509 16.5914V16.5914Z" fill="white"/>
<path fill-rule="evenodd" clip-rule="evenodd" d="M29.0065 5.32106L53.8801 19.5877V37.8642L28.9854 23.5861L4.08594 37.8642V19.5877L28.9644 5.32106V5.29688L28.9854 5.30897L29.0065 5.29688V5.32106Z" fill="#CEF1F8"/>
<path fill-rule="evenodd" clip-rule="evenodd" d="M4.08594 37.865L29.0065 52.154L53.9223 37.865L29.0053 23.5742L4.08594 37.865Z" fill="#ABEB69"/>
<path fill-rule="evenodd" clip-rule="evenodd" d="M6.89342 39.4671L4.08594 37.8573V41.0745L28.9797 55.3499V55.3538L28.9831 55.3518L29.0065 55.3653V55.3384L53.8955 41.1046V37.8573L28.9931 52.1386L26.561 50.7441L51.6202 36.4205L50.4345 35.8196L25.4368 50.0995L22.7855 48.5793L47.5347 34.3846L46.3472 33.7819L21.6631 47.9357L18.9657 46.3891L43.4481 32.3468L42.263 31.744L17.842 45.7448L15.6553 44.491L40.3818 30.3083L39.1967 29.7062L14.5332 43.8476L11.8361 42.3011L36.2963 28.2707L35.1107 27.6686L10.7128 41.657L8.01518 40.1103L32.2109 26.2324L31.0258 25.6309L6.89342 39.4671Z" fill="#286D34"/>
<path fill-rule="evenodd" clip-rule="evenodd" d="M53.9275 41.0361V46.7295L29.0117 61.0191V55.327L53.9275 41.0361Z" fill="#542E15"/>
<path fill-rule="evenodd" clip-rule="evenodd" d="M29.0261 61.0191V55.327L4.10547 41.0361V46.7295L29.0261 61.0191Z" fill="#542E15"/>
<path fill-rule="evenodd" clip-rule="evenodd" d="M29.2404 4.61216C29.0859 4.52355 28.896 4.52383 28.7417 4.61289L4.12415 18.8259C4.08171 18.8504 4.04374 18.8806 4.01099 18.9152C3.87477 19.0078 3.79224 19.1624 3.79224 19.3286L3.79224 47.7545C3.79224 47.9326 3.88699 48.0973 4.04099 48.1868L28.6623 62.4971C28.7763 62.5634 28.9102 62.5811 29.0348 62.5499C29.1594 62.581 29.2932 62.5634 29.4073 62.4971L54.0286 48.1868C54.1826 48.0973 54.2773 47.9326 54.2773 47.7545L54.2773 19.3286C54.2773 19.1987 54.2269 19.0759 54.1398 18.9842C54.0964 18.9001 54.0292 18.8285 53.9442 18.7798L29.2404 4.61216ZM53.2773 20.1898L53.2773 47.4668L29.6562 61.1958L29.6594 33.6714L53.2773 20.1898ZM28.4184 61.1987L4.79224 47.4668L4.79224 20.1893L28.572 33.7493L28.4184 61.1987ZM5.3783 19.2565L28.9925 5.62277L52.6888 19.2125L28.9939 32.741L5.3783 19.2565Z" fill="white"/>
<path fill-rule="evenodd" clip-rule="evenodd" d="M77.6729 25.1216C77.6729 21.8077 79.8213 19.8291 83.4171 19.8291C84.9979 19.8291 86.2252 20.0612 87.0404 20.2154L87.0574 20.2186C87.1486 20.2361 87.2357 20.2522 87.3185 20.2676C87.3542 20.2742 87.389 20.2807 87.4231 20.287L87.7837 20.351V23.9325L87.1712 23.8018C86.3284 23.6204 85.3713 23.4156 83.9614 23.4156C82.7785 23.4156 82.1005 23.9414 82.1005 24.8578V27.6159H87.1567V31.2403H82.1005V47.3018H77.6729V31.2403H74.957V27.6159H77.6729V25.1216Z" fill="white"/>
<path fill-rule="evenodd" clip-rule="evenodd" d="M93.3633 47.2863C91.4768 47.2863 90.0548 46.9386 89.0161 46.2236C87.6629 45.2927 86.9766 43.7237 86.9766 41.5582C86.9766 39.5324 87.6818 37.8765 89.0145 36.7698C90.3372 35.6721 92.2081 35.1151 94.5756 35.1151H97.7148V33.2456C97.7148 31.6276 96.6035 30.6611 94.7426 30.6611C92.3013 30.6611 90.7433 30.9371 88.7221 31.4462L88.5223 31.4969V28.4205L88.6422 28.3883C90.4437 27.9064 92.5149 27.6299 94.3242 27.6299C99.6196 27.6299 101.589 29.3558 101.589 33.9979V43.0249C101.589 43.7359 102.122 44.067 103.266 44.067H103.426V47.0231H102.013C101.037 47.0231 99.7394 46.6554 99.0226 45.6227L98.8323 45.3484L98.5976 45.586C97.4524 46.7461 95.789 47.2863 93.3633 47.2863V47.2863V47.2863ZM94.3653 37.9961C92.7818 37.9961 90.9331 38.8696 90.9331 41.3323C90.9331 43.4082 91.8791 44.255 94.1983 44.255C97.1184 44.255 97.7148 42.306 97.7148 41.7841V37.9961H94.3653V37.9961V37.9961Z" fill="white"/>
<path fill-rule="evenodd" clip-rule="evenodd" d="M101.311 33.9987C101.311 29.5598 99.4176 27.9089 94.3242 27.9089C92.5671 27.9089 90.5591 28.1727 88.7992 28.6345V31.1411C90.7716 30.6498 92.3296 30.3838 94.742 30.3838C96.7466 30.3838 97.9917 31.481 97.9917 33.2465V34.8378V35.3942H97.4369H94.575C92.2741 35.3942 90.462 35.9294 89.1909 36.9849C87.9237 38.0371 87.2534 39.6189 87.2534 41.5591C87.2534 43.6272 87.8987 45.1194 89.172 45.9947C90.1635 46.6774 91.534 47.009 93.3627 47.009C95.7091 47.009 97.3103 46.4949 98.4006 45.391L98.87 44.9164L99.2506 45.4644C99.9064 46.4097 101.108 46.7458 102.013 46.7458H103.149V44.3449C101.929 44.3182 101.311 43.8748 101.311 43.0257V33.9987ZM97.9928 41.785C97.9928 42.6819 97.0651 44.5342 94.1989 44.5342C91.7154 44.5342 90.6562 43.5772 90.6562 41.3332C90.6562 38.6653 92.6548 37.7189 94.3659 37.7189H97.438H97.9928V38.2753V41.785ZM88.5707 28.1204C90.3928 27.633 92.4895 27.3525 94.3243 27.3525C99.7511 27.3525 101.866 29.2148 101.867 33.9993V43.0263C101.867 43.2744 101.867 43.7902 103.267 43.7902H103.704V47.3028H102.013C100.949 47.3028 99.5658 46.8927 98.7957 45.7832C97.5962 46.9978 95.849 47.5659 93.3633 47.5659C91.4192 47.5659 89.9467 47.2032 88.8592 46.4542C87.4266 45.4689 86.6992 43.8219 86.6992 41.5596C86.6992 39.4486 87.4383 37.7188 88.8376 36.557C90.2108 35.417 92.1405 34.8383 94.5756 34.8383H97.4375V33.247C97.4375 31.782 96.4549 30.9408 94.7427 30.9408C92.3297 30.9408 90.7883 31.2139 88.7898 31.7175L88.245 31.8538V28.2077L88.5707 28.1204ZM91.2112 41.3332C91.2112 43.2628 92.0207 43.9778 94.199 43.9778C96.8882 43.9778 97.4375 42.2485 97.4381 41.785V38.2753H94.366C92.8413 38.2753 91.2112 39.0787 91.2112 41.3332Z" fill="white"/>
<path fill-rule="evenodd" clip-rule="evenodd" d="M109.883 28.9511C110.967 27.8772 112.297 27.3525 113.919 27.3525C114.867 27.3525 115.645 27.4204 116.231 27.5506L116.573 27.6285V31.8699L116.045 31.7581C115 31.5361 114.209 31.4287 113.629 31.4287C110.623 31.4287 110.389 34.3748 110.389 35.2762V47.3028H105.961V27.6168H109.709L109.883 28.9511Z" fill="white"/>
<path fill-rule="evenodd" clip-rule="evenodd" d="M131.385 29.4618C132.762 28.0441 134.477 27.3525 136.607 27.3525C141.014 27.3525 142.895 29.4752 142.893 34.4505V47.3028H138.466V34.0744C138.466 31.673 137.885 30.9408 135.979 30.9408C133.951 30.9408 132.657 32.5738 132.657 33.6988V47.3028H128.229V34.0744C128.229 31.673 127.65 30.9408 125.742 30.9408C123.715 30.9408 122.421 32.5738 122.421 33.6988V47.3028H117.992V27.6168H121.723L121.943 28.8609C123.197 27.8594 124.682 27.3525 126.37 27.3525C128.603 27.3525 130.287 28.0608 131.385 29.4618Z" fill="white"/>
<path fill-rule="evenodd" clip-rule="evenodd" d="M152.736 47.2863C150.238 47.2863 148.91 47.1094 147.626 46.938C147.347 46.9007 147.089 46.8657 146.824 46.8345L146.684 46.8167V20.3711H150.559V29.0876L150.988 28.8044C152.172 28.0249 153.533 27.6299 155.034 27.6299C157.493 27.6299 159.215 28.3482 160.299 29.8254C161.321 31.2164 161.797 33.2595 161.797 36.2551C161.797 40.5517 161.181 43.2124 159.802 44.8821C158.429 46.5446 156.25 47.2863 152.736 47.2863V47.2863V47.2863ZM154.366 30.6611C152.042 30.6611 150.559 32.4594 150.559 33.6974V44.1237L150.809 44.1482C151.531 44.2206 152.298 44.2551 153.156 44.2551C156.658 44.2551 157.84 42.331 157.84 36.6302C157.841 32.056 157.029 30.6611 154.366 30.6611V30.6611V30.6611Z" fill="white"/>
<path fill-rule="evenodd" clip-rule="evenodd" d="M150.281 20.6501V28.5727V29.6043L151.141 29.0378C152.279 28.2884 153.589 27.9089 155.035 27.9089C157.399 27.9089 159.048 28.5905 160.076 29.9921C161.061 31.3324 161.521 33.3227 161.521 36.256C161.521 40.483 160.925 43.0886 159.589 44.706C158.274 46.299 156.16 47.0095 152.737 47.0095C150.257 47.0095 148.939 46.8342 147.644 46.6612C147.415 46.63 147.19 46.6006 146.962 46.5722V20.6507H150.281V20.6501V20.6501ZM153.155 44.5342C157.327 44.5342 158.117 41.7566 158.117 36.6311C158.117 31.9017 157.206 30.3833 154.365 30.3833C151.872 30.3833 150.281 32.3463 150.281 33.6978V43.8721V44.3756L150.781 44.4257C151.511 44.4991 152.289 44.5342 153.155 44.5342V44.5342V44.5342ZM150.836 20.0938H146.406V47.064L146.791 47.1119C147.062 47.1442 147.323 47.1792 147.59 47.2154C148.886 47.3884 150.226 47.5659 152.736 47.5659C156.339 47.5659 158.584 46.7936 160.015 45.061C161.439 43.3373 162.074 40.6221 162.074 36.2566C162.074 33.2008 161.582 31.1043 160.522 29.6621C159.381 28.1076 157.586 27.3531 155.034 27.3531C153.473 27.3531 152.064 27.7637 150.835 28.5733V20.0938H150.836V20.0938V20.0938ZM153.155 43.9777C152.312 43.9777 151.55 43.9432 150.835 43.8725V33.6983C150.835 32.5994 152.243 30.9402 154.365 30.9402C156.576 30.9402 157.562 31.7631 157.562 36.6316C157.563 42.1945 156.492 43.9777 153.155 43.9777V43.9777V43.9777V43.9777Z" fill="white"/>
<path fill-rule="evenodd" clip-rule="evenodd" d="M172.916 47.2869C170.065 47.2869 168.148 46.6153 166.884 45.1731C165.473 43.5668 164.816 40.9962 164.816 37.082C164.816 33.8187 165.461 31.4807 166.788 29.9334C168.117 28.3838 170.121 27.6299 172.916 27.6299C175.712 27.6299 177.716 28.3832 179.044 29.9334C180.371 31.4824 181.016 33.8204 181.016 37.082C181.016 40.9946 180.36 43.5657 178.95 45.1731C177.684 46.6153 175.767 47.2869 172.916 47.2869V47.2869V47.2869ZM172.916 30.5854C171.268 30.5854 170.262 31.0567 169.65 32.1133C169.044 33.1616 168.773 34.868 168.773 37.6467C168.773 43.1957 170.429 44.3324 172.916 44.3324C175.403 44.3324 177.059 43.1957 177.059 37.6467C177.059 34.8686 176.789 33.1616 176.183 32.1133C175.571 31.0567 174.564 30.5854 172.916 30.5854V30.5854V30.5854Z" fill="white"/>
<path fill-rule="evenodd" clip-rule="evenodd" d="M172.916 27.9089C175.626 27.9089 177.562 28.6306 178.833 30.1151C180.116 31.6118 180.739 33.8908 180.739 37.0823C180.739 40.9236 180.104 43.4363 178.741 44.9892C177.532 46.3674 175.681 47.009 172.916 47.009C170.151 47.009 168.3 46.3674 167.092 44.9892C165.729 43.4375 165.094 40.9248 165.094 37.0823C165.094 33.8885 165.717 31.6095 166.998 30.1156C168.272 28.6306 170.207 27.9089 172.916 27.9089V27.9089V27.9089ZM172.916 44.6108C176.097 44.6108 177.336 42.6584 177.336 37.6469C177.336 34.8165 177.055 33.0678 176.423 31.9739C175.756 30.8216 174.675 30.3075 172.917 30.3075C171.159 30.3075 170.077 30.8216 169.411 31.9739C168.779 33.0672 168.497 34.8165 168.497 37.6469C168.497 42.6584 169.736 44.6108 172.916 44.6108V44.6108V44.6108ZM172.916 27.3525C170.036 27.3525 167.962 28.1371 166.578 29.7523C165.204 31.3536 164.539 33.7511 164.539 37.0823C164.539 41.0672 165.218 43.6973 166.675 45.357C167.996 46.8638 169.98 47.5654 172.916 47.5654C175.852 47.5654 177.835 46.8638 179.158 45.357C180.614 43.6973 181.294 41.0672 181.294 37.0823C181.294 33.7511 180.626 31.3536 179.254 29.7523C177.871 28.1371 175.798 27.3525 172.916 27.3525V27.3525V27.3525V27.3525ZM172.916 44.0544C170.53 44.0544 169.051 42.9817 169.051 37.6469C169.051 34.9206 169.31 33.257 169.89 32.2532C170.454 31.2795 171.357 30.8639 172.916 30.8639C174.474 30.8639 175.379 31.2795 175.943 32.2532C176.523 33.2575 176.782 34.9206 176.782 37.6469C176.782 42.9817 175.302 44.0544 172.916 44.0544V44.0544V44.0544V44.0544Z" fill="white"/>
<path fill-rule="evenodd" clip-rule="evenodd" d="M194.102 27.6162H199.035L193.117 37.0077L199.576 47.3021H194.35L190.626 40.7717L186.704 47.3021H181.738L188.073 37.1551L182.248 27.6162H187.378L190.72 33.3894L194.102 27.6162Z" fill="white"/>
</svg>
