<svg width="158" height="62" viewBox="0 0 158 62" fill="none" xmlns="http://www.w3.org/2000/svg">
<path d="M81.5674 39.4893C81.5674 39.18 81.4932 38.9079 81.3447 38.6729C81.2087 38.4378 80.9551 38.2214 80.584 38.0234C80.2253 37.8132 79.7428 37.6214 79.1367 37.4482C78.5306 37.2751 77.7637 37.1019 76.8359 36.9287C75.6608 36.6937 74.5846 36.403 73.6074 36.0566C72.6426 35.6979 71.8138 35.2712 71.1211 34.7764C70.4284 34.2692 69.8841 33.6878 69.4883 33.0322C69.1048 32.3766 68.9131 31.6221 68.9131 30.7686C68.9131 29.9398 69.111 29.1481 69.5068 28.3936C69.9027 27.639 70.4717 26.9772 71.2139 26.4082C71.9561 25.8392 72.859 25.3877 73.9229 25.0537C74.9867 24.7197 76.1865 24.5527 77.5225 24.5527C78.9202 24.5527 80.1758 24.7197 81.2891 25.0537C82.4023 25.3753 83.3424 25.8268 84.1094 26.4082C84.8887 26.9772 85.4824 27.6576 85.8906 28.4492C86.2988 29.2409 86.5029 30.1006 86.5029 31.0283H81.3447C81.3447 30.249 81.0293 29.5996 80.3984 29.0801C79.7676 28.5482 78.8089 28.2822 77.5225 28.2822C76.3226 28.2822 75.4134 28.4987 74.7949 28.9316C74.1888 29.3646 73.8857 29.8965 73.8857 30.5273C73.8857 30.8242 73.9476 31.1025 74.0713 31.3623C74.195 31.6097 74.4115 31.8385 74.7207 32.0488C75.0423 32.2467 75.4753 32.4323 76.0195 32.6055C76.5638 32.7663 77.2565 32.9085 78.0977 33.0322C79.3099 33.2301 80.4355 33.4837 81.4746 33.793C82.5137 34.1022 83.4105 34.5042 84.165 34.999C84.9196 35.4814 85.5072 36.0752 85.9277 36.7803C86.3607 37.473 86.5771 38.3018 86.5771 39.2666C86.5771 40.1572 86.3607 40.9798 85.9277 41.7344C85.5072 42.4766 84.901 43.1198 84.1094 43.6641C83.3301 44.2083 82.3838 44.6351 81.2705 44.9443C80.1572 45.2412 78.9141 45.3896 77.541 45.3896C76.0319 45.3896 74.696 45.1917 73.5332 44.7959C72.3828 44.4001 71.418 43.8867 70.6387 43.2559C69.8594 42.6126 69.2656 41.889 68.8574 41.085C68.4616 40.2686 68.2637 39.4521 68.2637 38.6357H73.1807C73.2178 39.18 73.3662 39.6501 73.626 40.0459C73.8857 40.4294 74.2197 40.7448 74.6279 40.9922C75.0361 41.2272 75.5 41.4004 76.0195 41.5117C76.5514 41.623 77.0957 41.6787 77.6523 41.6787C78.9264 41.6787 79.8975 41.4746 80.5654 41.0664C81.2334 40.6582 81.5674 40.1325 81.5674 39.4893ZM90.7334 34.7764C90.7334 33.3167 90.9437 31.9684 91.3643 30.7314C91.7848 29.4821 92.3971 28.3997 93.2012 27.4844C94.0176 26.569 95.0072 25.8516 96.1699 25.332C97.3451 24.8125 98.6872 24.5527 100.196 24.5527C101.705 24.5527 103.048 24.8125 104.223 25.332C105.398 25.8516 106.387 26.569 107.191 27.4844C108.008 28.3997 108.626 29.4821 109.047 30.7314C109.467 31.9684 109.678 33.3167 109.678 34.7764V35.166C109.678 36.638 109.467 37.9987 109.047 39.248C108.626 40.485 108.014 41.5612 107.21 42.4766C106.406 43.3919 105.416 44.1094 104.241 44.6289C103.066 45.1361 101.73 45.3896 100.233 45.3896C98.7243 45.3896 97.376 45.1361 96.1885 44.6289C95.0133 44.1094 94.0176 43.3919 93.2012 42.4766C92.3971 41.5612 91.7848 40.485 91.3643 39.248C90.9437 37.9987 90.7334 36.638 90.7334 35.166V34.7764ZM95.8916 35.166C95.8916 36.0072 95.972 36.7988 96.1328 37.541C96.2936 38.2708 96.5472 38.9141 96.8936 39.4707C97.2399 40.015 97.6852 40.4479 98.2295 40.7695C98.7861 41.0911 99.4541 41.252 100.233 41.252C100.988 41.252 101.637 41.0911 102.182 40.7695C102.726 40.4479 103.165 40.015 103.499 39.4707C103.845 38.9141 104.099 38.2708 104.26 37.541C104.421 36.7988 104.501 36.0072 104.501 35.166V34.7764C104.501 33.96 104.421 33.1868 104.26 32.457C104.099 31.7272 103.845 31.084 103.499 30.5273C103.165 29.9707 102.726 29.5316 102.182 29.21C101.637 28.8883 100.976 28.7275 100.196 28.7275C99.4294 28.7275 98.7738 28.8883 98.2295 29.21C97.6852 29.5316 97.2399 29.9707 96.8936 30.5273C96.5472 31.084 96.2936 31.7272 96.1328 32.457C95.972 33.1868 95.8916 33.96 95.8916 34.7764V35.166ZM115.634 24.9238H126.562V40.8066H131.999V45H115.634V40.8066H121.349V29.1357H115.634V24.9238ZM120.978 19.7842C120.978 19.3883 121.046 19.0234 121.182 18.6895C121.33 18.3431 121.534 18.0524 121.794 17.8174C122.054 17.57 122.363 17.3783 122.722 17.2422C123.093 17.1061 123.501 17.0381 123.946 17.0381C124.862 17.0381 125.585 17.2979 126.117 17.8174C126.661 18.3245 126.934 18.9801 126.934 19.7842C126.934 20.5882 126.661 21.25 126.117 21.7695C125.585 22.2767 124.862 22.5303 123.946 22.5303C123.501 22.5303 123.093 22.4622 122.722 22.3262C122.363 22.1901 122.054 22.0046 121.794 21.7695C121.534 21.5221 121.33 21.2314 121.182 20.8975C121.046 20.5511 120.978 20.18 120.978 19.7842ZM138.159 16.5H149.385V40.8066H155.137V45H138.159V40.8066H144.171V20.7119H138.159V16.5Z" fill="#363E48"/>
<path d="M29 62L58 46H0L29 62Z" fill="#542E15"/>
<rect y="37" width="58" height="9" fill="#542E15"/>
<path fill-rule="evenodd" clip-rule="evenodd" d="M0 37L29 53L58 37L29 21L0 37Z" fill="#7D573E"/>
<g style="mix-blend-mode:overlay" opacity="0.7" filter="url(#filter0_f)">
<rect width="24.7694" height="24.7694" transform="matrix(0.875578 0.483077 -0.875578 0.483077 29 24.9648)" fill="#20252B"/>
</g>
<path d="M29 45L58 29H0L29 45Z" fill="#286D34"/>
<rect y="24" width="58" height="5" fill="#286D34"/>
<path fill-rule="evenodd" clip-rule="evenodd" d="M0 24L29 40L58 24L29 8L0 24Z" fill="#ABEB69"/>
<rect width="2.54777" height="33.121" transform="matrix(0.875578 0.483077 -0.875578 0.483077 31.2305 1.23047)" fill="#286D34"/>
<rect width="2.54777" height="33.121" transform="matrix(0.875578 0.483077 -0.875578 0.483077 35.6914 3.69238)" fill="#286D34"/>
<rect width="2.54777" height="33.121" transform="matrix(0.875578 0.483077 -0.875578 0.483077 40.1523 6.1543)" fill="#286D34"/>
<rect width="2.54777" height="33.121" transform="matrix(0.875578 0.483077 -0.875578 0.483077 44.6172 8.61523)" fill="#286D34"/>
<rect width="2.54777" height="33.121" transform="matrix(0.875578 0.483077 -0.875578 0.483077 49.0781 11.0771)" fill="#286D34"/>
<rect width="2.54777" height="33.121" transform="matrix(0.875578 0.483077 -0.875578 0.483077 53.5391 13.5381)" fill="#286D34"/>
<defs>
<filter id="filter0_f" x="3.3125" y="20.9648" width="51.375" height="31.931" filterUnits="userSpaceOnUse" color-interpolation-filters="sRGB">
<feFlood flood-opacity="0" result="BackgroundImageFix"/>
<feBlend mode="normal" in="SourceGraphic" in2="BackgroundImageFix" result="shape"/>
<feGaussianBlur stdDeviation="2" result="effect1_foregroundBlur"/>
</filter>
</defs>
</svg>
